<svg t="1676824440878" class="icon" viewBox="0 0 1024 1024" version="1.1" xmlns="http://www.w3.org/2000/svg" p-id="916"
     width="38" height="38">
    <path d="M512 512.01m-211.87 0a211.87 211.87 0 1 0 423.74 0 211.87 211.87 0 1 0-423.74 0Z" fill="#F8D448"
          p-id="917"></path>
    <path d="M512 776.16c-16.57 0-30 13.43-30 30V928c0 16.57 13.43 30 30 30s30-13.43 30-30V806.16c0-16.57-13.43-30-30-30zM512 247.85c16.57 0 30-13.43 30-30V96.01c0-16.57-13.43-30-30-30s-30 13.43-30 30v121.84c0 16.56 13.43 30 30 30zM741.21 698.78c-11.72-11.72-30.72-11.72-42.43 0-11.72 11.72-11.72 30.71 0 42.43l86.16 86.16c5.85 5.86 13.53 8.79 21.21 8.79s15.36-2.93 21.22-8.79c11.72-11.72 11.72-30.71 0-42.43l-86.16-86.16zM282.79 325.21c5.85 5.86 13.53 8.79 21.21 8.79s15.36-2.93 21.22-8.79c11.72-11.72 11.72-30.71 0-42.43l-86.16-86.16c-11.72-11.72-30.71-11.72-42.43 0-11.72 11.72-11.72 30.71 0 42.43l86.16 86.16zM282.8 698.78l-86.16 86.16c-11.72 11.72-11.72 30.71 0 42.43a29.893 29.893 0 0 0 21.21 8.79c7.67 0 15.35-2.93 21.22-8.79l86.16-86.16c11.72-11.72 11.72-30.71 0-42.43-11.72-11.72-30.71-11.72-42.43 0zM720 334.01c7.68 0 15.35-2.93 21.22-8.79l86.16-86.16c11.72-11.72 11.72-30.71 0-42.43-11.72-11.72-30.72-11.72-42.43 0l-86.16 86.16c-11.72 11.72-11.72 30.71 0 42.43 5.85 5.86 13.53 8.79 21.21 8.79zM247.84 512.01c0-16.57-13.43-30-30-30H96c-16.57 0-30 13.43-30 30s13.43 30 30 30h121.85c16.57 0 29.99-13.43 29.99-30zM928 482.01H806.15c-16.57 0-30 13.43-30 30s13.43 30 30 30H928c16.56 0 30-13.43 30-30s-13.43-30-30-30z"
          fill="#FFD500" p-id="918"></path>
</svg>